<svg width="512" height="512" viewBox="0 0 512 512" fill="none" xmlns="http://www.w3.org/2000/svg">
<g clip-path="url(#clip0_1801_19152)">
<path d="M343.5 124H168.5C120.175 124 81 163.175 81 211.5C81 259.825 120.175 299 168.5 299H343.5C391.825 299 431 259.825 431 211.5C431 163.175 391.825 124 343.5 124Z" fill="#6366F1"/>
<path d="M343.5 269.833C375.716 269.833 401.833 243.717 401.833 211.5C401.833 179.283 375.716 153.167 343.5 153.167C311.283 153.167 285.167 179.283 285.167 211.5C285.167 243.717 311.283 269.833 343.5 269.833Z" fill="white"/>
</g>
<path d="M133.356 423V378.52H118.236V370.68H157.756V378.52H142.636V423H133.356ZM176.045 423.96C172.792 423.96 169.752 423.16 166.925 421.56C164.098 419.907 161.805 417.56 160.045 414.52C158.285 411.427 157.405 407.72 157.405 403.4C157.405 399.027 158.285 395.32 160.045 392.28C161.805 389.187 164.098 386.84 166.925 385.24C169.752 383.587 172.792 382.76 176.045 382.76C179.352 382.76 182.418 383.587 185.245 385.24C188.072 386.84 190.365 389.187 192.125 392.28C193.885 395.32 194.765 399.027 194.765 403.4C194.765 407.72 193.885 411.427 192.125 414.52C190.365 417.56 188.072 419.907 185.245 421.56C182.418 423.16 179.352 423.96 176.045 423.96ZM176.045 416.44C178.925 416.44 181.192 415.24 182.845 412.84C184.498 410.44 185.325 407.293 185.325 403.4C185.325 399.453 184.498 396.28 182.845 393.88C181.192 391.48 178.925 390.28 176.045 390.28C173.165 390.28 170.898 391.48 169.245 393.88C167.645 396.28 166.845 399.453 166.845 403.4C166.845 407.293 167.645 410.44 169.245 412.84C170.898 415.24 173.165 416.44 176.045 416.44ZM217.551 440.36C214.458 440.36 211.658 439.987 209.151 439.24C206.698 438.493 204.751 437.347 203.311 435.8C201.925 434.307 201.231 432.413 201.231 430.12C201.231 426.867 203.098 424.067 206.831 421.72V421.4C205.818 420.76 204.965 419.907 204.271 418.84C203.631 417.773 203.311 416.44 203.311 414.84C203.311 413.293 203.738 411.907 204.591 410.68C205.498 409.4 206.511 408.36 207.631 407.56V407.24C206.298 406.227 205.098 404.813 204.031 403C203.018 401.187 202.511 399.133 202.511 396.84C202.511 393.8 203.231 391.24 204.671 389.16C206.111 387.08 208.005 385.507 210.351 384.44C212.751 383.32 215.311 382.76 218.031 382.76C219.098 382.76 220.111 382.867 221.071 383.08C222.085 383.24 222.991 383.453 223.791 383.72H237.871V390.52H230.671C231.311 391.267 231.845 392.227 232.271 393.4C232.698 394.52 232.911 395.773 232.911 397.16C232.911 400.04 232.245 402.493 230.911 404.52C229.578 406.493 227.791 407.987 225.551 409C223.311 410.013 220.805 410.52 218.031 410.52C217.178 410.52 216.298 410.44 215.391 410.28C214.485 410.12 213.578 409.853 212.671 409.48C212.085 410.013 211.605 410.547 211.231 411.08C210.911 411.613 210.751 412.333 210.751 413.24C210.751 414.36 211.205 415.24 212.111 415.88C213.071 416.52 214.751 416.84 217.151 416.84H224.111C228.858 416.84 232.431 417.613 234.831 419.16C237.285 420.653 238.511 423.107 238.511 426.52C238.511 429.08 237.658 431.4 235.951 433.48C234.245 435.613 231.818 437.293 228.671 438.52C225.525 439.747 221.818 440.36 217.551 440.36ZM218.031 404.76C219.898 404.76 221.498 404.067 222.831 402.68C224.165 401.293 224.831 399.347 224.831 396.84C224.831 394.387 224.165 392.493 222.831 391.16C221.551 389.773 219.951 389.08 218.031 389.08C216.111 389.08 214.485 389.747 213.151 391.08C211.818 392.413 211.151 394.333 211.151 396.84C211.151 399.347 211.818 401.293 213.151 402.68C214.485 404.067 216.111 404.76 218.031 404.76ZM218.991 434.36C222.138 434.36 224.698 433.72 226.671 432.44C228.645 431.16 229.631 429.693 229.631 428.04C229.631 426.493 229.018 425.453 227.791 424.92C226.618 424.387 224.911 424.12 222.671 424.12H217.311C215.178 424.12 213.391 423.933 211.951 423.56C209.925 425.107 208.911 426.84 208.911 428.76C208.911 430.52 209.818 431.88 211.631 432.84C213.445 433.853 215.898 434.36 218.991 434.36ZM259.114 440.36C256.02 440.36 253.22 439.987 250.714 439.24C248.26 438.493 246.314 437.347 244.874 435.8C243.487 434.307 242.794 432.413 242.794 430.12C242.794 426.867 244.66 424.067 248.394 421.72V421.4C247.38 420.76 246.527 419.907 245.834 418.84C245.194 417.773 244.874 416.44 244.874 414.84C244.874 413.293 245.3 411.907 246.154 410.68C247.06 409.4 248.074 408.36 249.194 407.56V407.24C247.86 406.227 246.66 404.813 245.594 403C244.58 401.187 244.074 399.133 244.074 396.84C244.074 393.8 244.794 391.24 246.234 389.16C247.674 387.08 249.567 385.507 251.914 384.44C254.314 383.32 256.874 382.76 259.594 382.76C260.66 382.76 261.674 382.867 262.634 383.08C263.647 383.24 264.554 383.453 265.354 383.72H279.434V390.52H272.234C272.874 391.267 273.407 392.227 273.834 393.4C274.26 394.52 274.474 395.773 274.474 397.16C274.474 400.04 273.807 402.493 272.474 404.52C271.14 406.493 269.354 407.987 267.114 409C264.874 410.013 262.367 410.52 259.594 410.52C258.74 410.52 257.86 410.44 256.954 410.28C256.047 410.12 255.14 409.853 254.234 409.48C253.647 410.013 253.167 410.547 252.794 411.08C252.474 411.613 252.314 412.333 252.314 413.24C252.314 414.36 252.767 415.24 253.674 415.88C254.634 416.52 256.314 416.84 258.714 416.84H265.674C270.42 416.84 273.994 417.613 276.394 419.16C278.847 420.653 280.074 423.107 280.074 426.52C280.074 429.08 279.22 431.4 277.514 433.48C275.807 435.613 273.38 437.293 270.234 438.52C267.087 439.747 263.38 440.36 259.114 440.36ZM259.594 404.76C261.46 404.76 263.06 404.067 264.394 402.68C265.727 401.293 266.394 399.347 266.394 396.84C266.394 394.387 265.727 392.493 264.394 391.16C263.114 389.773 261.514 389.08 259.594 389.08C257.674 389.08 256.047 389.747 254.714 391.08C253.38 392.413 252.714 394.333 252.714 396.84C252.714 399.347 253.38 401.293 254.714 402.68C256.047 404.067 257.674 404.76 259.594 404.76ZM260.554 434.36C263.7 434.36 266.26 433.72 268.234 432.44C270.207 431.16 271.194 429.693 271.194 428.04C271.194 426.493 270.58 425.453 269.354 424.92C268.18 424.387 266.474 424.12 264.234 424.12H258.874C256.74 424.12 254.954 423.933 253.514 423.56C251.487 425.107 250.474 426.84 250.474 428.76C250.474 430.52 251.38 431.88 253.194 432.84C255.007 433.853 257.46 434.36 260.554 434.36ZM295.956 423.96C292.703 423.96 290.383 422.973 288.996 421C287.663 419.027 286.996 416.333 286.996 412.92V366.52H296.196V413.4C296.196 414.52 296.41 415.32 296.836 415.8C297.263 416.227 297.716 416.44 298.196 416.44C298.41 416.44 298.596 416.44 298.756 416.44C298.97 416.387 299.263 416.333 299.636 416.28L300.836 423.16C300.303 423.373 299.61 423.56 298.756 423.72C297.956 423.88 297.023 423.96 295.956 423.96ZM325.515 423.96C321.888 423.96 318.608 423.16 315.675 421.56C312.742 419.907 310.422 417.56 308.715 414.52C307.008 411.427 306.155 407.72 306.155 403.4C306.155 399.133 307.008 395.453 308.715 392.36C310.475 389.267 312.742 386.893 315.515 385.24C318.288 383.587 321.195 382.76 324.235 382.76C327.808 382.76 330.795 383.56 333.195 385.16C335.595 386.707 337.408 388.893 338.635 391.72C339.862 394.493 340.475 397.72 340.475 401.4C340.475 403.32 340.342 404.813 340.075 405.88H315.115C315.542 409.347 316.795 412.04 318.875 413.96C320.955 415.88 323.568 416.84 326.715 416.84C328.422 416.84 329.995 416.6 331.435 416.12C332.928 415.587 334.395 414.867 335.835 413.96L338.955 419.72C337.088 420.947 335.008 421.96 332.715 422.76C330.422 423.56 328.022 423.96 325.515 423.96ZM315.035 399.64H332.475C332.475 396.6 331.808 394.227 330.475 392.52C329.142 390.76 327.142 389.88 324.475 389.88C322.182 389.88 320.128 390.733 318.315 392.44C316.555 394.093 315.462 396.493 315.035 399.64ZM369.662 423.96C365.662 423.96 362.169 423.16 359.182 421.56C356.195 419.96 353.875 417.4 352.222 413.88C350.622 410.36 349.822 405.747 349.822 400.04V370.68H359.102V400.76C359.102 404.547 359.529 407.56 360.382 409.8C361.289 411.987 362.542 413.56 364.142 414.52C365.742 415.427 367.582 415.88 369.662 415.88C371.795 415.88 373.662 415.427 375.262 414.52C376.915 413.56 378.195 411.987 379.102 409.8C380.062 407.56 380.542 404.547 380.542 400.76V370.68H389.422V400.04C389.422 405.747 388.622 410.36 387.022 413.88C385.422 417.4 383.129 419.96 380.142 421.56C377.209 423.16 373.715 423.96 369.662 423.96Z" fill="#0F172A"/>
<defs>
<clipPath id="clip0_1801_19152">
<rect width="350" height="175" fill="white" transform="translate(81 124)"/>
</clipPath>
</defs>
</svg>
